<?xml version="1.0" encoding="utf-8"?>
<!-- Generator: Adobe Illustrator 16.0.0, SVG Export Plug-In . SVG Version: 6.00 Build 0)  -->
<!DOCTYPE svg PUBLIC "-//W3C//DTD SVG 1.1//EN" "http://www.w3.org/Graphics/SVG/1.1/DTD/svg11.dtd">
<svg version="1.1" id="Layer_1" focusable="false" xmlns="http://www.w3.org/2000/svg" xmlns:xlink="http://www.w3.org/1999/xlink"
	 x="0px" y="0px" width="600px" height="600px" viewBox="0 0 600 600" enable-background="new 0 0 600 600" xml:space="preserve">
<path fill="#FFFFFF" d="M487.5,37.5h-375c-41.426,0-75,33.574-75,75v375c0,41.426,33.574,75,75,75h375c41.426,0,75-33.574,75-75
	v-375C562.5,71.074,528.926,37.5,487.5,37.5z M187.5,450c-20.707,0-37.5-16.793-37.5-37.5s16.793-37.5,37.5-37.5
	s37.5,16.793,37.5,37.5S208.207,450,187.5,450z M187.5,337.5c-20.707,0-37.5-16.793-37.5-37.5s16.793-37.5,37.5-37.5
	S225,279.293,225,300S208.207,337.5,187.5,337.5z M187.5,225c-20.707,0-37.5-16.793-37.5-37.5s16.793-37.5,37.5-37.5
	s37.5,16.793,37.5,37.5S208.207,225,187.5,225z M412.5,450c-20.707,0-37.5-16.793-37.5-37.5s16.793-37.5,37.5-37.5
	s37.5,16.793,37.5,37.5S433.207,450,412.5,450z M412.5,337.5c-20.707,0-37.5-16.793-37.5-37.5s16.793-37.5,37.5-37.5
	S450,279.293,450,300S433.207,337.5,412.5,337.5z M412.5,225c-20.707,0-37.5-16.793-37.5-37.5s16.793-37.5,37.5-37.5
	s37.5,16.793,37.5,37.5S433.207,225,412.5,225z"/>
</svg>
